<svg xmlns="http://www.w3.org/2000/svg" version="1.1" xmlns:xlink="http://www.w3.org/1999/xlink" xmlns:svgjs="http://svgjs.dev/svgjs" width="128" height="128" viewBox="0 0 128 128"><g transform="matrix(0.8046875,0,0,0.8046875,12.333870967741937,12.333870967741937)"><svg viewBox="0 0 155 155" data-background-color="#ffffff" preserveAspectRatio="xMidYMid meet" height="128" width="128" xmlns="http://www.w3.org/2000/svg" xmlns:xlink="http://www.w3.org/1999/xlink"><g id="tight-bounds" transform="matrix(1,0,0,1,0.25,0.25)"><svg viewBox="0 0 154.5 154.5" height="154.5" width="154.5"><g><svg></svg></g><g><svg viewBox="0 0 154.5 154.5" height="154.5" width="154.5"><g transform="matrix(1,0,0,1,39.0576,52.4064)"><svg viewBox="0 0 76.3848 49.687200000000004" height="49.687200000000004" width="76.3848"><g><svg viewBox="0 0 76.3848 49.687200000000004" height="49.687200000000004" width="76.3848"><g><svg viewBox="0 0 76.3848 49.687200000000004" height="49.687200000000004" width="76.3848"><g><svg viewBox="0 0 76.3848 49.687200000000004" height="49.687200000000004" width="76.3848"><g><svg viewBox="0 0 76.3848 49.687200000000004" height="49.687200000000004" width="76.3848"><g transform="matrix(1,0,0,1,0,0)"><svg width="76.3848" viewBox="1.5 -36.85 56.65 36.85" height="49.687200000000004" data-palette-color="#0063db"><path d="M30.2 0L24.65 0 1.5-36.85 7-36.85 30.2 0ZM7.15 0L1.65 0 13.75-19.55 16.3-15.3 7.15 0ZM30.3-36.85L18-16.85 15.55-21.25 24.75-36.85 30.3-36.85ZM58.15 0L33.9 0 33.9-4.05 52.05-32.35 33.9-32.35 33.9-36.85 58.15-36.85 58.15-32.8 40-4.5 58.15-4.5 58.15 0Z" opacity="1" transform="matrix(1,0,0,1,0,0)" fill="#0063db" class="undefined-text-0" data-fill-palette-color="primary" id="text-0"></path></svg></g></svg></g></svg></g></svg></g></svg></g></svg></g><g><path d="M0 154.5v-154.5h154.5v154.5zM150.019 150.019v-145.538h-145.538v145.538z" fill="#0063db" fill-rule="nonzero" stroke="none" stroke-width="1" stroke-linecap="butt" stroke-linejoin="miter" stroke-miterlimit="10" stroke-dasharray="" stroke-dashoffset="0" font-family="none" font-weight="none" font-size="none" text-anchor="none" style="mix-blend-mode: normal" data-fill-palette-color="tertiary"></path></g></svg></g><defs></defs></svg><rect width="154.5" height="154.5" fill="none" stroke="none" visibility="hidden"></rect></g></svg></g></svg>